<?xml version="1.0" standalone="no"?><!DOCTYPE svg PUBLIC "-//W3C//DTD SVG 1.1//EN" "http://www.w3.org/Graphics/SVG/1.1/DTD/svg11.dtd"><svg t="1711474514371" class="icon" viewBox="0 0 1024 1024" version="1.1" xmlns="http://www.w3.org/2000/svg" p-id="41206" xmlns:xlink="http://www.w3.org/1999/xlink" width="200" height="200"><path d="M480 170.666667c109.525333 0 203.008 70.997333 239.530667 170.837333l-1.706667 0.042667a128 128 0 0 0-120.277333 120.277333L597.333333 469.333333v320l0.213334 7.509334c1.194667 20.48 7.210667 39.68 16.896 56.490666H309.333333A224 224 0 0 1 85.333333 629.333333v-14.464a224.085333 224.085333 0 0 1 140.074667-207.744C238.848 274.261333 347.733333 170.666667 480 170.666667zM938.666667 426.666667a42.666667 42.666667 0 0 1 42.666666 42.666666v320a42.666667 42.666667 0 0 1-42.666666 42.666667h-213.333334a42.666667 42.666667 0 0 1-42.666666-42.666667V469.333333a42.666667 42.666667 0 0 1 42.666666-42.666666h213.333334z m-21.333334 213.333333a21.333333 21.333333 0 1 0 0 42.666667 21.333333 21.333333 0 0 0 0-42.666667z m0-85.333333h-170.666666a21.333333 21.333333 0 0 0-3.84 42.325333l3.84 0.341333h170.666666a21.333333 21.333333 0 1 0 0-42.666666z m0-85.333334h-170.666666a21.333333 21.333333 0 0 0-3.84 42.325334l3.84 0.341333h170.666666a21.333333 21.333333 0 1 0 0-42.666667z" fill="#297EFF" p-id="41207"></path></svg>